<mxfile host="app.diagrams.net" modified="2023-09-03T22:23:29.022Z" agent="Mozilla/5.0 (Windows NT 10.0; Win64; x64; rv:109.0) Gecko/20100101 Firefox/117.0" etag="X7R6MJxhhLwcqj8eHad-" version="21.5.1">
  <diagram name="Page-1" id="UgzWsCBYWvUF1brH92Cr">
    <mxGraphModel dx="792" dy="1141" grid="1" gridSize="10" guides="1" tooltips="1" connect="1" arrows="1" fold="1" page="1" pageScale="1" pageWidth="850" pageHeight="1100" math="0" shadow="0">
      <root>
        <mxCell id="0" />
        <mxCell id="1" parent="0" />
        <mxCell id="UUfrYDLCbsB-RFr2t9AC-1" value="MyDate" style="swimlane;fontStyle=1;align=center;verticalAlign=top;childLayout=stackLayout;horizontal=1;startSize=26;horizontalStack=0;resizeParent=1;resizeParentMax=0;resizeLast=0;collapsible=1;marginBottom=0;whiteSpace=wrap;html=1;" vertex="1" parent="1">
          <mxGeometry x="345" y="340" width="290" height="240" as="geometry" />
        </mxCell>
        <mxCell id="UUfrYDLCbsB-RFr2t9AC-2" value="&lt;div&gt;-year: int&lt;/div&gt;&lt;div&gt;-month: int&lt;/div&gt;&lt;div&gt;-day: int&lt;br&gt;&lt;/div&gt;" style="text;strokeColor=none;fillColor=none;align=left;verticalAlign=top;spacingLeft=4;spacingRight=4;overflow=hidden;rotatable=0;points=[[0,0.5],[1,0.5]];portConstraint=eastwest;whiteSpace=wrap;html=1;" vertex="1" parent="UUfrYDLCbsB-RFr2t9AC-1">
          <mxGeometry y="26" width="290" height="64" as="geometry" />
        </mxCell>
        <mxCell id="UUfrYDLCbsB-RFr2t9AC-3" value="" style="line;strokeWidth=1;fillColor=none;align=left;verticalAlign=middle;spacingTop=-1;spacingLeft=3;spacingRight=3;rotatable=0;labelPosition=right;points=[];portConstraint=eastwest;strokeColor=inherit;" vertex="1" parent="UUfrYDLCbsB-RFr2t9AC-1">
          <mxGeometry y="90" width="290" height="8" as="geometry" />
        </mxCell>
        <mxCell id="UUfrYDLCbsB-RFr2t9AC-4" value="&lt;div&gt;+myDate()&lt;/div&gt;&lt;div&gt;+myDate(elapsedTime: long)&lt;/div&gt;&lt;div&gt;+myDate(year: int, month: int, day: int)&lt;/div&gt;&lt;div&gt;+getYear(): int&lt;/div&gt;&lt;div&gt;+getMonth(): int&lt;/div&gt;&lt;div&gt;+getDay(): int&lt;/div&gt;&lt;div&gt;+setDate(elapsedTime: long)&lt;br&gt;&lt;/div&gt;" style="text;strokeColor=none;fillColor=none;align=left;verticalAlign=top;spacingLeft=4;spacingRight=4;overflow=hidden;rotatable=0;points=[[0,0.5],[1,0.5]];portConstraint=eastwest;whiteSpace=wrap;html=1;" vertex="1" parent="UUfrYDLCbsB-RFr2t9AC-1">
          <mxGeometry y="98" width="290" height="142" as="geometry" />
        </mxCell>
      </root>
    </mxGraphModel>
  </diagram>
</mxfile>
